<svg xmlns="http://www.w3.org/2000/svg" viewBox="0 0 640 360" width="640" height="360">
<defs><radialGradient id="glow" cx="50%" cy="45%" r="60%"><stop offset="0" stop-color="#2ec4b6" stop-opacity=".18"/><stop offset="1" stop-color="#2ec4b6" stop-opacity="0"/></radialGradient>
<pattern id="dots" width="20" height="20" patternUnits="userSpaceOnUse"><circle cx="1" cy="1" r="1" fill="#3a4248"/></pattern></defs>
<rect width="640" height="360" fill="#15191c"/><rect width="640" height="360" fill="url(#dots)" opacity=".6"/><rect width="640" height="360" fill="url(#glow)"/>
<polygon points="94.2,64.0 70.0,78.0 45.8,64.0 45.8,36.0 70.0,22.0 94.2,36.0" fill="#15191c" fill-opacity="1" stroke="#3a4248" stroke-width="1.5"/><polygon points="154.2,64.0 130.0,78.0 105.8,64.0 105.8,36.0 130.0,22.0 154.2,36.0" fill="#15191c" fill-opacity="1" stroke="#3a4248" stroke-width="1.5"/><polygon points="214.2,64.0 190.0,78.0 165.8,64.0 165.8,36.0 190.0,22.0 214.2,36.0" fill="#15191c" fill-opacity="1" stroke="#3a4248" stroke-width="1.5"/><polygon points="274.2,64.0 250.0,78.0 225.8,64.0 225.8,36.0 250.0,22.0 274.2,36.0" fill="#15191c" fill-opacity="1" stroke="#3a4248" stroke-width="1.5"/><polygon points="334.2,64.0 310.0,78.0 285.8,64.0 285.8,36.0 310.0,22.0 334.2,36.0" fill="#15191c" fill-opacity="1" stroke="#3a4248" stroke-width="1.5"/><polygon points="394.2,64.0 370.0,78.0 345.8,64.0 345.8,36.0 370.0,22.0 394.2,36.0" fill="#15191c" fill-opacity="1" stroke="#3a4248" stroke-width="1.5"/><polygon points="454.2,64.0 430.0,78.0 405.8,64.0 405.8,36.0 430.0,22.0 454.2,36.0" fill="#15191c" fill-opacity="1" stroke="#3a4248" stroke-width="1.5"/><polygon points="514.2,64.0 490.0,78.0 465.8,64.0 465.8,36.0 490.0,22.0 514.2,36.0" fill="#15191c" fill-opacity="1" stroke="#3a4248" stroke-width="1.5"/><polygon points="574.2,64.0 550.0,78.0 525.8,64.0 525.8,36.0 550.0,22.0 574.2,36.0" fill="#15191c" fill-opacity="1" stroke="#3a4248" stroke-width="1.5"/><polygon points="124.2,116.0 100.0,130.0 75.8,116.0 75.8,88.0 100.0,74.0 124.2,88.0" fill="#15191c" fill-opacity="1" stroke="#3a4248" stroke-width="1.5"/><polygon points="184.2,116.0 160.0,130.0 135.8,116.0 135.8,88.0 160.0,74.0 184.2,88.0" fill="#15191c" fill-opacity="1" stroke="#3a4248" stroke-width="1.5"/><polygon points="244.2,116.0 220.0,130.0 195.8,116.0 195.8,88.0 220.0,74.0 244.2,88.0" fill="#2ec4b6" fill-opacity="0.9" stroke="#3fd9cb" stroke-width="1.5"/><polygon points="304.2,116.0 280.0,130.0 255.8,116.0 255.8,88.0 280.0,74.0 304.2,88.0" fill="#15191c" fill-opacity="1" stroke="#3a4248" stroke-width="1.5"/><polygon points="364.2,116.0 340.0,130.0 315.8,116.0 315.8,88.0 340.0,74.0 364.2,88.0" fill="#2ec4b6" fill-opacity="0.9" stroke="#3fd9cb" stroke-width="1.5"/><polygon points="424.2,116.0 400.0,130.0 375.8,116.0 375.8,88.0 400.0,74.0 424.2,88.0" fill="#15191c" fill-opacity="1" stroke="#3a4248" stroke-width="1.5"/><polygon points="484.2,116.0 460.0,130.0 435.8,116.0 435.8,88.0 460.0,74.0 484.2,88.0" fill="#15191c" fill-opacity="1" stroke="#3a4248" stroke-width="1.5"/><polygon points="544.2,116.0 520.0,130.0 495.8,116.0 495.8,88.0 520.0,74.0 544.2,88.0" fill="#15191c" fill-opacity="1" stroke="#3a4248" stroke-width="1.5"/><polygon points="604.2,116.0 580.0,130.0 555.8,116.0 555.8,88.0 580.0,74.0 604.2,88.0" fill="#15191c" fill-opacity="1" stroke="#3a4248" stroke-width="1.5"/><polygon points="94.2,168.0 70.0,182.0 45.8,168.0 45.8,140.0 70.0,126.0 94.2,140.0" fill="#15191c" fill-opacity="1" stroke="#3a4248" stroke-width="1.5"/><polygon points="154.2,168.0 130.0,182.0 105.8,168.0 105.8,140.0 130.0,126.0 154.2,140.0" fill="#15191c" fill-opacity="1" stroke="#3a4248" stroke-width="1.5"/><polygon points="214.2,168.0 190.0,182.0 165.8,168.0 165.8,140.0 190.0,126.0 214.2,140.0" fill="#15191c" fill-opacity="1" stroke="#3a4248" stroke-width="1.5"/><polygon points="274.2,168.0 250.0,182.0 225.8,168.0 225.8,140.0 250.0,126.0 274.2,140.0" fill="#2ec4b6" fill-opacity="0.9" stroke="#3fd9cb" stroke-width="1.5"/><polygon points="334.2,168.0 310.0,182.0 285.8,168.0 285.8,140.0 310.0,126.0 334.2,140.0" fill="#15191c" fill-opacity="1" stroke="#3a4248" stroke-width="1.5"/><polygon points="394.2,168.0 370.0,182.0 345.8,168.0 345.8,140.0 370.0,126.0 394.2,140.0" fill="#2ec4b6" fill-opacity="0.9" stroke="#3fd9cb" stroke-width="1.5"/><polygon points="454.2,168.0 430.0,182.0 405.8,168.0 405.8,140.0 430.0,126.0 454.2,140.0" fill="#15191c" fill-opacity="1" stroke="#3a4248" stroke-width="1.5"/><polygon points="514.2,168.0 490.0,182.0 465.8,168.0 465.8,140.0 490.0,126.0 514.2,140.0" fill="#15191c" fill-opacity="1" stroke="#3a4248" stroke-width="1.5"/><polygon points="574.2,168.0 550.0,182.0 525.8,168.0 525.8,140.0 550.0,126.0 574.2,140.0" fill="#15191c" fill-opacity="1" stroke="#3a4248" stroke-width="1.5"/><polygon points="124.2,220.0 100.0,234.0 75.8,220.0 75.8,192.0 100.0,178.0 124.2,192.0" fill="#15191c" fill-opacity="1" stroke="#3a4248" stroke-width="1.5"/><polygon points="184.2,220.0 160.0,234.0 135.8,220.0 135.8,192.0 160.0,178.0 184.2,192.0" fill="#15191c" fill-opacity="1" stroke="#3a4248" stroke-width="1.5"/><polygon points="244.2,220.0 220.0,234.0 195.8,220.0 195.8,192.0 220.0,178.0 244.2,192.0" fill="#15191c" fill-opacity="1" stroke="#3a4248" stroke-width="1.5"/><polygon points="304.2,220.0 280.0,234.0 255.8,220.0 255.8,192.0 280.0,178.0 304.2,192.0" fill="#15191c" fill-opacity="1" stroke="#3a4248" stroke-width="1.5"/><polygon points="364.2,220.0 340.0,234.0 315.8,220.0 315.8,192.0 340.0,178.0 364.2,192.0" fill="#15191c" fill-opacity="1" stroke="#3a4248" stroke-width="1.5"/><polygon points="424.2,220.0 400.0,234.0 375.8,220.0 375.8,192.0 400.0,178.0 424.2,192.0" fill="#15191c" fill-opacity="1" stroke="#3a4248" stroke-width="1.5"/><polygon points="484.2,220.0 460.0,234.0 435.8,220.0 435.8,192.0 460.0,178.0 484.2,192.0" fill="#15191c" fill-opacity="1" stroke="#3a4248" stroke-width="1.5"/><polygon points="544.2,220.0 520.0,234.0 495.8,220.0 495.8,192.0 520.0,178.0 544.2,192.0" fill="#15191c" fill-opacity="1" stroke="#3a4248" stroke-width="1.5"/><polygon points="604.2,220.0 580.0,234.0 555.8,220.0 555.8,192.0 580.0,178.0 604.2,192.0" fill="#15191c" fill-opacity="1" stroke="#3a4248" stroke-width="1.5"/><polygon points="94.2,272.0 70.0,286.0 45.8,272.0 45.8,244.0 70.0,230.0 94.2,244.0" fill="#15191c" fill-opacity="1" stroke="#3a4248" stroke-width="1.5"/><polygon points="154.2,272.0 130.0,286.0 105.8,272.0 105.8,244.0 130.0,230.0 154.2,244.0" fill="#15191c" fill-opacity="1" stroke="#3a4248" stroke-width="1.5"/><polygon points="214.2,272.0 190.0,286.0 165.8,272.0 165.8,244.0 190.0,230.0 214.2,244.0" fill="#15191c" fill-opacity="1" stroke="#3a4248" stroke-width="1.5"/><polygon points="274.2,272.0 250.0,286.0 225.8,272.0 225.8,244.0 250.0,230.0 274.2,244.0" fill="#15191c" fill-opacity="1" stroke="#3a4248" stroke-width="1.5"/><polygon points="334.2,272.0 310.0,286.0 285.8,272.0 285.8,244.0 310.0,230.0 334.2,244.0" fill="#15191c" fill-opacity="1" stroke="#3a4248" stroke-width="1.5"/><polygon points="394.2,272.0 370.0,286.0 345.8,272.0 345.8,244.0 370.0,230.0 394.2,244.0" fill="#15191c" fill-opacity="1" stroke="#3a4248" stroke-width="1.5"/><polygon points="454.2,272.0 430.0,286.0 405.8,272.0 405.8,244.0 430.0,230.0 454.2,244.0" fill="#15191c" fill-opacity="1" stroke="#3a4248" stroke-width="1.5"/><polygon points="514.2,272.0 490.0,286.0 465.8,272.0 465.8,244.0 490.0,230.0 514.2,244.0" fill="#15191c" fill-opacity="1" stroke="#3a4248" stroke-width="1.5"/><polygon points="574.2,272.0 550.0,286.0 525.8,272.0 525.8,244.0 550.0,230.0 574.2,244.0" fill="#15191c" fill-opacity="1" stroke="#3a4248" stroke-width="1.5"/><text x="208" y="108" text-anchor="middle" font-family="IBM Plex Mono, monospace" font-size="11" fill="#15191c">ebpf</text><text x="278" y="160" text-anchor="middle" font-family="IBM Plex Mono, monospace" font-size="11" fill="#15191c">btf</text><text x="328" y="108" text-anchor="middle" font-family="IBM Plex Mono, monospace" font-size="11" fill="#15191c">link</text><text x="398" y="160" text-anchor="middle" font-family="IBM Plex Mono, monospace" font-size="11" fill="#15191c">iggy</text>
<text x="24" y="336" font-family="IBM Plex Mono, monospace" font-size="13" fill="#5b636b">git log --author=arunsingh</text>
</svg>